<svg xmlns="http://www.w3.org/2000/svg" viewBox="0 0 404.65 287.9"><defs><style>.cls-1{fill:#7c7c7c;stroke:#fff;stroke-linecap:round;stroke-linejoin:round;stroke-width:2px;}</style></defs><title>map-islands</title><g id="Layer_2" data-name="Layer 2"><g id="Layer_1-2" data-name="Layer 1"><path id="CAN684" class="cls-1" d="M100.79,208.3l1.93,8.09-5,.77-1.93-2.31,2.7-5.78ZM199.43,14.1l-1.54,4.62-2.31,2.7-2.7,1.16V19.11L191,17.57l1.54-3.47,2.7-.77Zm-2.7-1.93,1.54-7.32h1.93l.39,3.47Zm22.73,122.14-5,1.54-3.85,5.39-1.16,2.7-3.08-3.08-3.47,5.78-4.62,3.08,1.54-4.62-3.47-4.24-.39,3.85-4.24,4.62-3.47,7.71-5.39-.39-2.7,1.54-2.31,3.08-8.09,3.08L164,167.45l-7.32,5.39-2.7,2.7-10.4,4.24-5.39,3.08-3.85-1.16-1.93-3.47-3.85-1.54,5.78-5.39-2.7-1.54L130.08,174l-4.24,1.16,2.7,3.47,2.7.39-3.08,4.24-2.31,1.54-2.31-.39L122,186.72l-6.55,3.85-2.7-4.24-2.31.77-5,3.47L102,191.73l-7.32-1.93,1.93-2.7L93.09,184,90,185.56l-1.54,4.24-3.08-2.7L85,183.64l-4.62-.39-3.47,3.08-1.54-.77L70,178.24l2.31-6.16-3.08-6.55,3.08-2.7-.39-5.39L65,157.05l-3.85-2.7-5.39-6.94,1.54-3.08-1.16-2.7,1.54-3.47-1.16-1.93L55.71,68l-.39-2.7L53,63.81,48.78,58l-10-9.25-4.62-1.93-1.93.77-1.54,3.47-6.94.39-4.62,3.47-5,.39L7.94,58.41,2.16,54.56,1,51.86l3.47-1.54,9.63-3.08,9.25-4.62,6.94-8.09.39-3.08V10.63H42.23V6.39h22l.39,3.85,4.62,1.54,6.16,3.85,1.54-2.7,5,.39L87.69,11l4.62,1.93,1.16-4.62,4.24-1.93,4.62.39,5.39-1.54L110,3.7,117.36,1l3.08,4.24,2.31.39L135.47,11,142,12.17,145.49,16l2.31,7.71,2.7,3.85,6.55-1.16,5-5,3.47-1.16L168.61,18l8.09-2.31-1.16,3.08,2.7.77L185.18,18l4.24,3.47,1.93,2.7-3.08,2.31-5.78,8.09,1.16,5-1.93,5.78-2.31,3.08v3.08L175.93,53l-3.47,4.62-9.25,6.55,2.31,1.16,3.47-.77,2.31,2.31,3.85-2.31,4.24,1.93L180.55,65h5l.77,6.55L184,73.05l-2.31,4.62,1.93,6.55,3.08,3.85,3.47,2.31-.39,6.94,2.31,6.94,2.31,3.08-.39,5.39,4.62.77-1.93,2.7,2.31,2.31,11.17.39,3.08,1.54,1.54,2.7,2.7.77,2.7-1.93,3.47.39,5.78,2.7.77,2.31-5,2.7-6.94-.39-.77,2.7,1.93,1.93Z"/><path id="CAN685" class="cls-1" d="M354.71,160.13l-.77,5-5-.39-1.93-2.7,4.24-2.31ZM209.45,144l1.16-2.7,3.85-5.39,5-1.54,1.54-.77,4.24,1.54,4.62,5.78h1.93l3.85,2.31,3.47-1.54h6.55l-.39,3.08,6.55,3.08-.77,2.31h5.39l5.39-2.7-1.54-1.93,7.71,1.93,8.09,1.16,3.08,1.54,2.31,3.08,2.7.77,3.47,3.85,4.62-4.24,4.24-1.16,9.25-6.55,3.08-3.47,2.7-1.54,1.16,11.56,4.62,3.08,7.32,2.31,1.93-3.47,4.62-.77,3.08,3.08,3.47,5.78,3.85,2.31-1.54,3.85-5,1.54-4.24,2.7,1.54,1.54,13.49-.39,6.16,1.16,1.16,1.16-4.62,5.78-3.47-.77-7.71.39-2.7,4.24-7.71.77-3.47-.39.39,4.24-7.32-.77-3.08,3.85-5.78.39-.77,2.31-6.55,2.31-2.31-.39L295,200.59l-3.85.77-2.31,3.47-4.62-.77L283,206l-3.47,1.93-6.16,1.16v3.47l-1.93.77-3.85-1.54-3.85,2.7L259.54,211l-5,3.85-1.93,2.7h-6.17l-.77,3.08-6.55-4.24,1.93,4.24,1.16,4.62-1.16,2.7h-4.24l-3.08,1.16-3.85-3.47L226,226.79l-1.54-1.16-.77-6.55.77-3.08-5.78,1.93.77,7.32-1.54,2.7-1.93-.77-.39-3.85-3.08-1.93-1.16,2.7-2.31-1.16-.77,3.47L206,229.1l.39,7.71,3.08,3.85-4.24.39-2.31,1.54-6.16,9.63-3.85,1.16-.77,3.47-3.08,2.7h-3.08l.77,3.85-.77,2.31-3.08.77-2.7,3.85-2.31.39-1.54,3.47-2.7-1.54-6.55,3.85-3.47-1.16-.77,6.55-3.08.77-1.93,2.7h-3.47l-1.16-2.7-4.62,4.24-1.93-.39-2.7-3.47.39-6.16L142,274.57l-3.85-6.94-1.93,2.31-.39,2.7-6.94-.39L127,263.4l.77-6.55-2.7-6.55,1.16-3.85,1.93-3.47,1.16-6.94,3.47-5.78,3.08-3.08,5-4.24V221l-4.24.39L126.23,233l.39-2.31,7.71-8.86,4.62-3.47,4.62-3.85,1.54,5.39,2.7-.77,4.24-4.24-1.16-1.16-5.39,2.7.77-3.85,11.56-7.71,2.7-2.7,7.32-3.47,1.93-2.31,6.94-4.24,6.94-5,6.55-3.08,8.86-2.31,4.24-2.7,2.7-3.08,1.54,2.31-2.31,5.39v4.62l2.7-1.54,3.47,2.31,1.16-2.31,3.85-4.24,6.55-2.31,2.31-1.16,3.47-.39,1.16-1.93,3.85-1.16,11.17.39,2.7-3.08h-5l-3.47-1.54h-9.63L226,174l-1.93-2.7-3.47.39-2.31-1.54-10.79.77-3.08,2.31-3.08-1.93-5-1.16-4.24,1.54-1.93,4.24L184,174h-3.47l1.54-4.62,3.08-3.47,7.71-4.62.39-1.54,4.24-3.08,5-4.62,2.31-5.39,4.62-2.7ZM373.59,70.36l5-.77L374,76.52l4.24,2.7,3.47.39v3.47l-1.54,7.32-2.31,1.16L380.14,95l-3.08,5.78L375.13,107l-1.93,3.47,3.47,5.39-1.93,1.93-6.16,8.09-3.85,2.31-9.25,2.31,1.54,1.16,5.78-.39-2.31,3.08-.77,3.47-3.08,1.54-3.08-.39-1.16,6.16-5,2.31-1.54,5h3.85l4.24-3.08,5,.77,2.31,4.24,2.31-2.7-.77-1.93,1.54-3.08,3.85-3.85,8.86-7.71-6.16,2.31-4.62,2.7H364l-2.7-3.47,5-3.85,1.93-.39,5.78-5,3.85-3.85-1.93-.77L369,128.92l-.77-1.54,6.55-8.48,5.39-4.62,2.7-1.16,1.16,3.08,2.31,2.31L384,122.76l1.54.77,2.31-4.24,3.85-1.16,8.86,4.62,1.16,4.24-2.31,4.24-.77,2.7,3.85-.39,1.16,4.24h-2.31l-5,3.85-6.55.39-1.16,1.16,3.47,3.08-5.39,2.7L385.15,152l-3.85,1.54-3.08,2.31-5,1.16-9.63,3.85L362.42,159l-6.55-1.16-4.62.39-5,3.08-3.85-2.7-2.7,2.31h-2.31L332,152l-1.54-11.17-1.54-3.08-.77-6.55,3.08-1.93.77-4.62,7.32-6.16,4.62-8.86,3.85-4.62.77-3.47,1.93-3.47-1.16-2.31,3.85-3.08,4.24-9.63,4.24-2.7,3.08-3.85,2.7-6.16L369,68.43Z"/><path id="CAN687" class="cls-1" d="M219.86,81.53l-2.7,3.08L224.09,90l4.24,5-1.93,5.78,2.31.39.77,3.85,3.47.77.77-7.32,3.08-.39,6.55,2.31-.39,1.93,2.31,1.93,2.31-2.7,2.7.77,1.16,3.08,3.08,2.7,1.93-1.54,4.62.77,5.78-.39,11.94-2.31,6.94-.77h11.17l6.94-.77,5.39,1.93-2.31,2.7-5.78,3.47L295,112l-3.47,2.7.77,1.93-3.08,3.47h-3.47l-2.7-1.16-.39,3.85,2.7.39-.77,2.7,3.47-.77.39,3.47-3.08,1.54,1.93,4.24-2.7,1.16-10,.39-3.08-.77-3.85-3.85.77-3.85-3.47-5-4.62-1.93-1.54-1.54-4.24,1.93,3.85,1.54-3.85,2.31h-1.93l-7.32-3.08-7.71-1.93-3.08-1.93-.77-2.31-3.08-1.93-.77-3.47L224.09,107l-2.31,1.54-6.16-.77.77-1.93.39-6.16,1.93-1.93-7.32-3.85-6.94.39-1.16-3.47,1.93-5,4.24-4.24,1.93-5,7.71-7.32L222.17,68l-.77,4.24,1.16,5-2.7,4.24Z"/></g></g></svg>