<svg xmlns="http://www.w3.org/2000/svg" data-name="Layer 1" viewBox="0 0 100 125" x="0px" y="0px"><title>Artboard 29</title><path fill='white' d="M16.63,40.84a7.62,7.62,0,1,1,7.62-7.62A7.62,7.62,0,0,1,16.63,40.84Zm10.15,6.8a6.21,6.21,0,0,0-5.15-4.73,1.61,1.61,0,0,0-1.27.37l-2,1.74a2.6,2.6,0,0,1-3.38,0l-2-1.74a1.61,1.61,0,0,0-1.27-.37,6.2,6.2,0,0,0-5.14,4.73L1.69,68.17a2.64,2.64,0,0,0,2.26,3.09,2.46,2.46,0,0,0,1-.09L2.69,80.71a1.69,1.69,0,0,0,1.65,2h6.77l1.33,14.86a2.5,2.5,0,0,0,2.48,2.22h3.41a2.5,2.5,0,0,0,2.48-2.22l1.33-14.86h6.77a1.69,1.69,0,0,0,1.65-2l-2.28-9.54a2.46,2.46,0,0,0,1,.09,2.64,2.64,0,0,0,2.26-3.09ZM91,33.21a7.62,7.62,0,1,0-7.62,7.62A7.62,7.62,0,0,0,91,33.21Zm2.53,14.43a6.21,6.21,0,0,0-5.15-4.73,1.61,1.61,0,0,0-1.27.37l-2,1.74a2.6,2.6,0,0,1-3.38,0l-2-1.74a1.61,1.61,0,0,0-1.27-.37,6.2,6.2,0,0,0-5.14,4.73L68.42,68.17a2.64,2.64,0,0,0,2.26,3.09,2.46,2.46,0,0,0,1-.09l-2.29,9.54a1.69,1.69,0,0,0,1.65,2h6.77l1.33,14.86a2.5,2.5,0,0,0,2.49,2.22h3.41a2.5,2.5,0,0,0,2.49-2.22l1.33-14.86h6.77a1.69,1.69,0,0,0,1.65-2L95,71.17a2.45,2.45,0,0,0,1,.09,2.64,2.64,0,0,0,2.26-3.09ZM40.94,20.5a7.62,7.62,0,1,0-7.62,7.62A7.62,7.62,0,0,0,40.94,20.5Zm33.37,0a7.62,7.62,0,1,0-7.62,7.62A7.62,7.62,0,0,0,74.31,20.5ZM50,15.41a7.62,7.62,0,1,0-7.62-7.62A7.62,7.62,0,0,0,50,15.41Zm0,25.42a7.62,7.62,0,1,0-7.62-7.62A7.63,7.63,0,0,0,50,40.84Zm7.23,2H54.59a1.61,1.61,0,0,0-.86.37l-2,1.75a2.61,2.61,0,0,1-3.38,0l-2-1.75a1.62,1.62,0,0,0-.86-.37H42.77A6.45,6.45,0,0,0,36.36,50l1.87,14.1a5.48,5.48,0,0,0,3.56,4.52l3.16,29a2.5,2.5,0,0,0,2.49,2.22h5a2.5,2.5,0,0,0,2.48-2.22l3.15-28.94a5.47,5.47,0,0,0,3.69-4.56L63.64,50A6.45,6.45,0,0,0,57.23,42.84Z"/></svg>