<svg xmlns:x="http://ns.adobe.com/Extensibility/1.0/" xmlns:i="http://ns.adobe.com/AdobeIllustrator/10.0/" xmlns:graph="http://ns.adobe.com/Graphs/1.0/" xmlns="http://www.w3.org/2000/svg" xmlns:xlink="http://www.w3.org/1999/xlink" xmlns:a="http://ns.adobe.com/AdobeSVGViewerExtensions/3.0/" version="1.1" x="0px" y="0px" viewBox="0 0 100 125" enable-background="new 0 0 100 100" xml:space="preserve"><g><path fill="white" d="M3.9,54.4c0.2,5,6.8,8.7,15.6,8.7c8.8,0,15.5-3.7,15.6-8.7c0-0.1,0-0.1,0-0.2c0,0,0,0,0-0.1c0,0,0-0.1,0-0.1   c0-0.1,0-0.2,0-0.2c0-0.1,0-0.1,0-0.2c0-0.1,0-0.1-0.1-0.2c0-0.1-0.1-0.1-0.1-0.2c0,0,0-0.1-0.1-0.1L22.8,32.8h25.7v47   c-11.6,0.4-23.3,4.2-23.3,10.8c0,1.1,0.9,2,2,2h46.5c1.1,0,2-0.9,2-2c0-6.7-11.6-10.4-23.3-10.8v-47h24.6l-12,20.4c0,0,0,0.1,0,0.1   c0,0.1-0.1,0.1-0.1,0.2c0,0.1,0,0.1-0.1,0.2c0,0.1,0,0.1,0,0.2c0,0.1,0,0.1,0,0.2c0,0,0,0.1,0,0.1c0,0,0,0,0,0.1c0,0,0,0.1,0,0.1   c0.2,5,6.8,8.7,15.6,8.7c8.8,0,15.5-3.7,15.6-8.7c0-0.1,0-0.1,0-0.2c0,0,0,0,0-0.1c0,0,0-0.1,0-0.1c0-0.1,0-0.2,0-0.2   c0-0.1,0-0.1,0-0.2c0-0.1,0-0.1-0.1-0.2c0-0.1-0.1-0.1-0.1-0.2c0,0,0-0.1-0.1-0.1L82.3,30.3c-0.2-0.9-1-1.5-1.9-1.5H52.5v-7.5   c2.9-0.9,5.1-3.6,5.1-6.8c0-3.9-3.2-7.1-7.1-7.1s-7.1,3.2-7.1,7.1c0,3.2,2.1,5.9,5.1,6.8v7.5h-29c-1,0-1.7,0.7-1.9,1.6L4.1,53.2   c0,0,0,0.1,0,0.1c0,0.1-0.1,0.1-0.1,0.2c0,0.1,0,0.1-0.1,0.2c0,0.1,0,0.1,0,0.2c0,0.1,0,0.1,0,0.2c0,0,0,0.1,0,0.1c0,0,0,0,0,0.1   C3.9,54.4,3.9,54.4,3.9,54.4z M80.5,59.1c-4.9,0-8.6-1.4-10.4-2.9h20.8C89.1,57.7,85.4,59.1,80.5,59.1z M80.4,35l10.2,17.2H70.3   L80.4,35z M47.4,14.5c0-1.7,1.4-3.1,3.1-3.1s3.1,1.4,3.1,3.1s-1.4,3.1-3.1,3.1S47.4,16.2,47.4,14.5z M50.5,83.7   c10.1,0,17.3,2.5,20,4.9H30.5C33.2,86.2,40.4,83.7,50.5,83.7z M19.5,35l10.2,17.2H9.4L19.5,35z M29.9,56.2   c-1.8,1.5-5.5,2.9-10.4,2.9s-8.6-1.4-10.4-2.9H29.9z"/></g></svg>